<svg xmlns="http://www.w3.org/2000/svg" viewBox="0 0 220 220" role="img" aria-labelledby="t d">
<title id="t">Higher Education Commission Pakistan logo placement</title><desc id="d">A simplified local SVG placement for the Higher Education Commission Pakistan mark.</desc>
<rect width="220" height="220" rx="110" fill="#fff"/>
<path d="M110 18c7 20 22 22 40 16-15 12-16 27-4 43-17-9-32-5-45 10 5-18 1-34-13-47 14 2 21-6 22-22Z" fill="#00843D" opacity=".95"/>
<path d="M48 142c-15-20-12-51 9-72 21-21 52-25 73-10-25-1-48 10-61 31-10 17-11 36-2 54-7 1-13 0-19-3Z" fill="#27145d"/>
<path d="M86 62h76v88H86z" fill="#0079a9" opacity=".92"/>
<text x="101" y="111" font-family="Arial Black,Arial,sans-serif" font-size="50" fill="#fff">HEC</text>
<path d="M76 132h76M72 142h82M79 152h70" stroke="#fff" stroke-width="5" stroke-linecap="round"/>
<path d="M35 150c23 35 83 49 150 4M27 137c22 49 94 72 168 9" stroke="#00843D" stroke-width="8" fill="none" stroke-linecap="round" opacity=".9"/>
<path d="M56 177h108" stroke="#00843D" stroke-width="15" stroke-linecap="round"/>
<text x="110" y="182" text-anchor="middle" font-family="Arial,sans-serif" font-size="12" font-weight="700" fill="#fff">HIGHER EDUCATION COMMISSION</text>
</svg>
